<svg width="30" height="25" viewBox="0 0 82 77" fill="none" xmlns="http://www.w3.org/2000/svg">
	<path d="M37.2248 2.78095C38.4751 -0.789724 43.5249 -0.789718 44.7752 2.78096L51.8991 23.1246C52.4498 24.6972 53.9177 25.7638 55.5836 25.8015L77.1329 26.2902C80.9152 26.376 82.4757 31.1785 79.4661 33.4711L62.3196 46.5328C60.9941 47.5425 60.4334 49.2682 60.9122 50.8642L67.1066 71.5099C68.1938 75.1335 64.1085 78.1017 60.9982 75.9479L43.2772 63.6768C41.9072 62.7282 40.0928 62.7282 38.7228 63.6768L21.0018 75.9479C17.8915 78.1017 13.8062 75.1335 14.8934 71.5098L21.0878 50.8642C21.5666 49.2682 21.0059 47.5425 19.6804 46.5328L2.53386 33.4711C-0.475672 31.1785 1.08478 26.376 4.86708 26.2902L26.4164 25.8015C28.0823 25.7638 29.5502 24.6972 30.1009 23.1246L37.2248 2.78095Z" fill="#FF8800" />
</svg>
